<?xml version="1.0" encoding="UTF-8" standalone="no"?>
<!-- Created with Inkscape (http://www.inkscape.org/) -->

<svg
   xmlns:dc="http://purl.org/dc/elements/1.1/"
   xmlns:cc="http://creativecommons.org/ns#"
   xmlns:rdf="http://www.w3.org/1999/02/22-rdf-syntax-ns#"
   xmlns:svg="http://www.w3.org/2000/svg"
   xmlns="http://www.w3.org/2000/svg"
   xmlns:sodipodi="http://sodipodi.sourceforge.net/DTD/sodipodi-0.dtd"
   xmlns:inkscape="http://www.inkscape.org/namespaces/inkscape"
   id="svg2"
   version="1.1"
   inkscape:version="0.48.1 r9760"
   width="360.76364"
   height="358.29919"
   xml:space="preserve"
   sodipodi:docname="in-1.pdf"><metadata
     id="metadata8"><rdf:RDF><cc:Work
         rdf:about=""><dc:format>image/svg+xml</dc:format><dc:type
           rdf:resource="http://purl.org/dc/dcmitype/StillImage" /><dc:title></dc:title></cc:Work></rdf:RDF></metadata><defs
     id="defs6"><clipPath
       clipPathUnits="userSpaceOnUse"
       id="clipPath18"><path
         d="M 178.58283,277.7948 0,277.7948 0,0 l 178.58283,0 0,277.7948 z"
         id="path20"
         inkscape:connector-curvature="0" /></clipPath><clipPath
       clipPathUnits="userSpaceOnUse"
       id="clipPath162"><path
         d="M 0,0 0,0 0,0 0,0 z"
         id="path164"
         inkscape:connector-curvature="0" /></clipPath><clipPath
       clipPathUnits="userSpaceOnUse"
       id="clipPath176"><path
         d="M 0,0 0,0 0,0 0,0 z"
         id="path178"
         inkscape:connector-curvature="0" /></clipPath><clipPath
       clipPathUnits="userSpaceOnUse"
       id="clipPath488"><path
         d="M 0,0 0,0 0,0 0,0 z"
         id="path490"
         inkscape:connector-curvature="0" /></clipPath></defs><sodipodi:namedview
     pagecolor="#ffffff"
     bordercolor="#666666"
     borderopacity="1"
     objecttolerance="10"
     gridtolerance="10"
     guidetolerance="10"
     inkscape:pageopacity="0"
     inkscape:pageshadow="2"
     inkscape:window-width="640"
     inkscape:window-height="480"
     id="namedview4"
     showgrid="false"
     fit-margin-top="0"
     fit-margin-left="0"
     fit-margin-right="0"
     fit-margin-bottom="0"
     inkscape:zoom="0.37697842"
     inkscape:cx="74.898665"
     inkscape:cy="117.27194"
     inkscape:window-x="0"
     inkscape:window-y="0"
     inkscape:window-maximized="0"
     inkscape:current-layer="g10" /><g
     id="g10"
     inkscape:groupmode="layer"
     inkscape:label="in-1"
     transform="matrix(1.25,0,0,-1.25,-26.547936,432.66377)"><g
       id="g12" /><g
       id="g14"
       transform="matrix(2.1124312,0,0,2.1124312,-23.056693,-66.180381)"><g
         id="g16"
         clip-path="url(#clipPath18)"><path
           d="m 33.358334,68 0,0.200005 c -0.608334,0.04166 -0.625,0.08333 -0.649998,0.824997 l -0.05833,2.541671 c -0.025,0.716667 0.01667,0.73333 0.641666,0.783333 l 0,0.199997 -1.191666,0 -1.625,-3.508331 -1.591667,3.508331 -1.15,0 0,-0.199997 c 0.633334,-0.05833 0.675,-0.08334 0.608334,-1 l -0.1,-1.450004 c -0.05,-0.741662 -0.09167,-1.041665 -0.133334,-1.283333 -0.05,-0.291664 -0.183334,-0.375 -0.591667,-0.416664 l 0,-0.200005 1.633334,0 0,0.200005 c -0.475001,0.04166 -0.633334,0.09167 -0.65,0.433334 -0.0083,0.275001 -0.0083,0.574997 0.025,1.158333 l 0.1,1.991668 0.01667,0 1.566666,-3.733337 0.141668,0 1.708332,3.833336 0.025,0 0.03333,-2.858337 c 0,-0.741662 -0.025,-0.783333 -0.600001,-0.824997 l 0,-0.200005 1.841666,0 z"
           style="fill:#000000;fill-opacity:1;fill-rule:evenodd;stroke:none"
           id="path22"
           inkscape:connector-curvature="0" /><path
           d="m 36.26667,72.65834 c -1.475002,0 -2.358333,-1.175003 -2.358333,-2.433334 0,-1.350006 1.008331,-2.333336 2.274997,-2.333336 1.283333,0 2.341668,0.925003 2.341668,2.441666 0,1.408333 -1.075001,2.325004 -2.258332,2.325004 z m -0.150001,-0.258338 c 0.916668,0 1.691665,-0.783333 1.691665,-2.258332 0,-1.341667 -0.691665,-1.991668 -1.474998,-1.991668 -0.991669,0 -1.708336,0.958335 -1.708336,2.275001 0,1.316666 0.708336,1.974999 1.491669,1.974999 z"
           style="fill:#000000;fill-opacity:1;fill-rule:evenodd;stroke:none"
           id="path24"
           inkscape:connector-curvature="0" /><path
           d="m 41.400002,70.466667 c 0.391666,0.108338 0.95,0.383339 0.95,1.050003 0,0.316666 -0.150001,0.625 -0.391666,0.791664 -0.216667,0.158333 -0.525002,0.241669 -1.049999,0.241669 l -1.800003,0 0,-0.199997 c 0.558334,-0.04167 0.591667,-0.08334 0.591667,-0.658333 l 0,-2.833336 c 0,-0.574997 -0.05,-0.616668 -0.649998,-0.658332 l 0,-0.200005 1.549999,0 c 0.55,0 1.016667,0.08334 1.375,0.28334 0.408333,0.21666 0.658333,0.583329 0.658333,1.049996 0,0.700004 -0.533333,1.008331 -1.233333,1.116669 l 0,0.01666 z m -1.108334,0.06667 0,1.375 c 0,0.224999 0.01667,0.308327 0.09167,0.349999 0.05833,0.04166 0.224999,0.06667 0.391667,0.06667 0.666667,0 0.933334,-0.416665 0.933334,-0.891671 0,-0.591667 -0.325001,-0.899994 -1.091667,-0.899994 l -0.325001,0 z m 0,-0.233337 0.316666,0 c 0.850002,0 1.341667,-0.316666 1.341667,-1.033333 0,-0.73333 -0.508332,-1.025001 -1.074997,-1.025001 -0.458336,0 -0.583336,0.133331 -0.583336,0.633331 l 0,1.425003 z"
           style="fill:#000000;fill-opacity:1;fill-rule:evenodd;stroke:none"
           id="path26"
           inkscape:connector-curvature="0" /><path
           d="m 45.058334,68 0,0.200005 c -0.574997,0.04166 -0.633331,0.075 -0.633331,0.674995 l 0,2.800003 c 0,0.591667 0.05833,0.633331 0.633331,0.675003 l 0,0.199997 -1.858333,0 0,-0.199997 c 0.575001,-0.04167 0.633335,-0.08334 0.633335,-0.675003 l 0,-2.800003 c 0,-0.59166 -0.05833,-0.633331 -0.633335,-0.674995 l 0,-0.200005 1.858333,0 z"
           style="fill:#000000;fill-opacity:1;fill-rule:evenodd;stroke:none"
           id="path28"
           inkscape:connector-curvature="0" /><path
           d="m 48.933334,69.14167 c -0.108333,-0.324997 -0.233333,-0.550003 -0.358333,-0.683334 -0.158333,-0.183334 -0.399998,-0.216667 -0.783333,-0.216667 -0.291664,0 -0.533333,0.0083 -0.674999,0.08334 -0.125,0.075 -0.158333,0.216667 -0.158333,0.591667 l 0,2.766662 c 0,0.600006 0.05833,0.625 0.616665,0.666672 l 0,0.199997 -1.824997,0 0,-0.199997 c 0.566665,-0.04167 0.616665,-0.075 0.616665,-0.666672 l 0,-2.799995 c 0,-0.599999 -0.05833,-0.64167 -0.650002,-0.683334 l 0,-0.200005 3.175003,0 c 0.05833,0.216667 0.208332,0.883339 0.25,1.100006 l -0.208336,0.04166 z"
           style="fill:#000000;fill-opacity:1;fill-rule:evenodd;stroke:none"
           id="path30"
           inkscape:connector-curvature="0" /><path
           d="m 51.300003,70.566673 -1.600002,0 -0.1,-0.383339 1.600003,0 0.1,0.383339 z"
           style="fill:#000000;fill-opacity:1;fill-rule:evenodd;stroke:none"
           id="path32"
           inkscape:connector-curvature="0" /><path
           d="m 56.441669,68 0,0.200005 c -0.45,0.04166 -0.549999,0.1 -0.766666,0.699997 -0.450001,1.224998 -0.916668,2.558334 -1.349998,3.758338 l -0.216668,-0.06667 -1.45,-3.666664 c -0.241669,-0.625 -0.333332,-0.666664 -0.783333,-0.724998 l 0,-0.200005 1.524998,0 0,0.200005 c -0.533333,0.04166 -0.591668,0.116668 -0.441666,0.558334 0.09167,0.291664 0.200001,0.583328 0.308334,0.900001 l 1.491665,0 c 0.150002,-0.425003 0.291668,-0.808334 0.383335,-1.075004 0.09167,-0.275002 0.025,-0.333336 -0.408333,-0.383331 l 0,-0.200005 1.708332,0 z m -1.783332,1.958336 -1.283333,0 c 0.216667,0.575004 0.43333,1.191666 0.658333,1.783333 l 0.0083,0 0.616669,-1.783333 z"
           style="fill:#000000;fill-opacity:1;fill-rule:evenodd;stroke:none"
           id="path34"
           inkscape:connector-curvature="0" /><path
           d="m 56.991669,72.550003 0,-0.199997 c 0.516666,-0.03333 0.575,-0.05833 0.575,-0.675003 l 0,-2.800003 c 0,-0.583328 -0.05833,-0.633331 -0.616664,-0.674995 l 0,-0.200005 1.891666,0 0,0.200005 c -0.625,0.04166 -0.691669,0.075 -0.691669,0.666664 l 0,1.099998 0.516666,-0.133331 c 0.075,-0.0083 0.208336,-0.0083 0.316669,0.0083 0.683331,0.08334 1.366665,0.525002 1.366665,1.433335 0,0.458335 -0.174999,0.775001 -0.45,0.991668 -0.283333,0.199997 -0.683331,0.283333 -1.183331,0.283333 l -1.725002,0 z m 1.158333,-0.633331 c 0,0.199997 0.025,0.283333 0.075,0.324997 0.05,0.05 0.200001,0.08334 0.391667,0.08334 0.575,0 1.058334,-0.325005 1.058334,-1.075005 0,-0.891663 -0.558334,-1.133331 -1.016666,-1.133331 -0.224999,0 -0.416668,0.05 -0.508335,0.08334 l 0,1.716667 z"
           style="fill:#000000;fill-opacity:1;fill-rule:evenodd;stroke:none"
           id="path36"
           inkscape:connector-curvature="0" /><path
           d="m 60.991669,72.550003 0,-0.199997 c 0.516666,-0.03333 0.575,-0.05833 0.575,-0.675003 l 0,-2.800003 c 0,-0.583328 -0.05833,-0.633331 -0.616664,-0.674995 l 0,-0.200005 1.891666,0 0,0.200005 c -0.625,0.04166 -0.691669,0.075 -0.691669,0.666664 l 0,1.099998 0.51667,-0.133331 c 0.075,-0.0083 0.208332,-0.0083 0.316665,0.0083 0.683335,0.08334 1.366669,0.525002 1.366669,1.433335 0,0.458335 -0.175003,0.775001 -0.450004,0.991668 -0.283333,0.199997 -0.683331,0.283333 -1.183331,0.283333 l -1.725002,0 z m 1.158333,-0.633331 c 0,0.199997 0.025,0.283333 0.075,0.324997 0.05,0.05 0.200001,0.08334 0.391667,0.08334 0.575,0 1.058334,-0.325005 1.058334,-1.075005 0,-0.891663 -0.558334,-1.133331 -1.016666,-1.133331 -0.224999,0 -0.416668,0.05 -0.508335,0.08334 l 0,1.716667 z"
           style="fill:#000000;fill-opacity:1;fill-rule:evenodd;stroke:none"
           id="path38"
           inkscape:connector-curvature="0" /><path
           d="m 67.53334,71.525002 c -0.05833,0.441665 -0.09167,0.724998 -0.125,0.966667 -0.26667,0.08334 -0.558334,0.166671 -0.883338,0.166671 -0.900002,0 -1.441666,-0.575004 -1.441666,-1.25 0,-0.791671 0.708336,-1.133338 1.158333,-1.375 0.525001,-0.28334 0.908333,-0.525001 0.908333,-1.050003 0,-0.508331 -0.308335,-0.833335 -0.841668,-0.833335 -0.724998,0 -1.041664,0.700004 -1.141662,1.133338 l -0.216667,-0.05 C 65,68.900002 65.091667,68.291672 65.14167,68.150002 c 0.075,-0.04166 0.175003,-0.09167 0.349999,-0.150002 0.166671,-0.04999 0.400001,-0.10833 0.683334,-0.10833 0.933334,0 1.558334,0.591667 1.558334,1.324997 0,0.791672 -0.658332,1.116669 -1.208335,1.400002 -0.558335,0.283333 -0.891663,0.525001 -0.891663,1.033333 0,0.383338 0.23333,0.76667 0.775001,0.76667 0.60833,0 0.799996,-0.483338 0.916665,-0.925003 l 0.208335,0.03333 z"
           style="fill:#000000;fill-opacity:1;fill-rule:evenodd;stroke:none"
           id="path40"
           inkscape:connector-curvature="0" /><path
           d="m 68.666672,68.90834 c -0.175003,0 -0.341667,-0.116668 -0.341667,-0.291671 0,-0.116669 0.04999,-0.166664 0.09167,-0.166664 0.23333,-0.06667 0.433334,-0.216668 0.433334,-0.474999 0,-0.258339 -0.200004,-0.450004 -0.541672,-0.591667 l 0.07501,-0.200005 c 0.433334,0.133339 0.916664,0.425003 0.916664,0.966668 0,0.483337 -0.383331,0.758338 -0.633331,0.758338 z"
           style="fill:#000000;fill-opacity:1;fill-rule:evenodd;stroke:none"
           id="path42"
           inkscape:connector-curvature="0" /><path
           d="m 76.433334,72.550003 -1.824997,0 0,-0.199997 c 0.550003,-0.04167 0.599999,-0.08334 0.599999,-0.658333 l 0,-1.133339 -2.383331,0 0,1.133339 c 0,0.574997 0.05833,0.616661 0.583335,0.658333 l 0,0.199997 -1.808334,0 0,-0.199997 c 0.574997,-0.04167 0.633331,-0.075 0.633331,-0.658333 l 0,-2.833336 c 0,-0.583335 -0.05833,-0.616668 -0.616668,-0.658332 l 0,-0.200005 1.841667,0 0,0.200005 c -0.574997,0.04166 -0.633331,0.08333 -0.633331,0.658332 l 0,1.391663 2.383331,0 0,-1.391663 c 0,-0.583335 -0.05,-0.616668 -0.658333,-0.658332 l 0,-0.200005 1.883331,0 0,0.200005 c -0.574997,0.04166 -0.625,0.075 -0.625,0.658332 l 0,2.833336 c 0,0.574997 0.05,0.616661 0.625,0.658333 l 0,0.199997 z"
           style="fill:#000000;fill-opacity:1;fill-rule:evenodd;stroke:none"
           id="path44"
           inkscape:connector-curvature="0" /><path
           d="m 80.416672,69.133339 c -0.09167,-0.275002 -0.224999,-0.51667 -0.349999,-0.658333 -0.150001,-0.183334 -0.350006,-0.233337 -0.883339,-0.233337 -0.349998,0 -0.591667,0 -0.724998,0.08334 -0.125,0.09167 -0.166664,0.241668 -0.166664,0.574997 l 0,1.316665 0.666664,0 c 0.608337,0 0.658333,-0.04166 0.75,-0.533333 l 0.200004,0 0,1.333336 -0.200004,0 c -0.08333,-0.466667 -0.125,-0.525001 -0.758331,-0.525001 l -0.658333,0 0,1.599998 c 0,0.200005 0.01666,0.216667 0.23333,0.216667 l 0.525001,0 c 0.508331,0 0.700005,-0.04166 0.791664,-0.199997 0.09167,-0.150001 0.166672,-0.300003 0.225006,-0.591667 l 0.208329,0.025 c -0.02499,0.35833 -0.05833,0.833328 -0.05833,1.008331 l -3.125,0 0,-0.199997 c 0.550003,-0.04167 0.608338,-0.06667 0.608338,-0.691666 l 0,-2.78334 c 0,-0.574997 -0.05833,-0.633331 -0.699997,-0.674995 l 0,-0.200005 3.375,0 c 0.06667,0.216667 0.208328,0.875 0.25,1.108337 l -0.208336,0.025 z"
           style="fill:#000000;fill-opacity:1;fill-rule:evenodd;stroke:none"
           id="path46"
           inkscape:connector-curvature="0" /><path
           d="m 86.825005,68 0,0.200005 c -0.60833,0.04166 -0.625,0.08333 -0.650002,0.824997 l -0.05833,2.541671 c -0.02499,0.716667 0.01667,0.73333 0.64167,0.783333 l 0,0.199997 -1.191666,0 -1.625,-3.508331 -1.591667,3.508331 -1.150001,0 0,-0.199997 c 0.633331,-0.05833 0.675003,-0.08334 0.608329,-1 l -0.1,-1.450004 c -0.05,-0.741662 -0.09167,-1.041665 -0.133331,-1.283333 -0.05,-0.291664 -0.183335,-0.375 -0.591668,-0.416664 l 0,-0.200005 1.633332,0 0,0.200005 c -0.474999,0.04166 -0.633332,0.09167 -0.650002,0.433334 -0.0083,0.275001 -0.0083,0.574997 0.025,1.158333 l 0.1,1.991668 0.01667,0 1.566666,-3.733337 0.14167,0 1.708329,3.833336 0.025,0 0.03333,-2.858337 c 0,-0.741662 -0.025,-0.783333 -0.599999,-0.824997 l 0,-0.200005 1.841668,0 z"
           style="fill:#000000;fill-opacity:1;fill-rule:evenodd;stroke:none"
           id="path48"
           inkscape:connector-curvature="0" /><path
           d="m 89.933334,71.525002 c -0.05833,0.441665 -0.09166,0.724998 -0.125,0.966667 -0.266662,0.08334 -0.558326,0.166671 -0.883331,0.166671 -0.900001,0 -1.441666,-0.575004 -1.441666,-1.25 0,-0.791671 0.708336,-1.133338 1.158333,-1.375 0.525002,-0.28334 0.908333,-0.525001 0.908333,-1.050003 0,-0.508331 -0.308334,-0.833335 -0.841667,-0.833335 -0.724999,0 -1.041664,0.700004 -1.141663,1.133338 l -0.216667,-0.05 c 0.05,-0.333335 0.141663,-0.941665 0.191666,-1.083335 0.075,-0.04166 0.175003,-0.09167 0.349998,-0.150002 0.166664,-0.04999 0.400002,-0.10833 0.683335,-0.10833 0.933334,0 1.558334,0.591667 1.558334,1.324997 0,0.791672 -0.658333,1.116669 -1.208336,1.400002 -0.558334,0.283333 -0.891663,0.525001 -0.891663,1.033333 0,0.383338 0.23333,0.76667 0.774994,0.76667 0.608338,0 0.800003,-0.483338 0.916672,-0.925003 l 0.208328,0.03333 z"
           style="fill:#000000;fill-opacity:1;fill-rule:evenodd;stroke:none"
           id="path50"
           inkscape:connector-curvature="0" /><path
           d="m 92.525002,68 0,0.200005 c -0.574997,0.04166 -0.633332,0.075 -0.633332,0.674995 l 0,2.800003 c 0,0.591667 0.05833,0.633331 0.633332,0.675003 l 0,0.199997 -1.85833,0 0,-0.199997 c 0.574997,-0.04167 0.633331,-0.08334 0.633331,-0.675003 l 0,-2.800003 c 0,-0.59166 -0.05833,-0.633331 -0.633331,-0.674995 l 0,-0.200005 1.85833,0 z"
           style="fill:#000000;fill-opacity:1;fill-rule:evenodd;stroke:none"
           id="path52"
           inkscape:connector-curvature="0" /><path
           d="m 93.100006,72.550003 0,-0.199997 c 0.541664,-0.04167 0.599999,-0.06667 0.599999,-0.666672 l 0,-2.816665 c 0,-0.591667 -0.05833,-0.633332 -0.658333,-0.674996 l 0,-0.191673 1.650001,0 c 0.849999,0 1.549996,0.175003 2.074997,0.583336 0.533333,0.400001 0.866669,1.025001 0.866669,1.866669 0,0.658332 -0.25,1.166664 -0.599999,1.508331 -0.433334,0.416664 -1.083335,0.591667 -1.974998,0.591667 l -1.958336,0 z m 1.191666,-0.724998 c 0,0.283332 0.025,0.358329 0.09167,0.400001 0.06667,0.05833 0.25,0.09167 0.541664,0.09167 0.474999,0 0.875,-0.09167 1.191666,-0.283333 0.558334,-0.333335 0.825004,-0.958335 0.825004,-1.683334 0,-1.116669 -0.608337,-2.100006 -1.908333,-2.100006 -0.508338,0 -0.741668,0.133339 -0.741668,0.666672 l 0,2.908333 z"
           style="fill:#000000;fill-opacity:1;fill-rule:evenodd;stroke:none"
           id="path54"
           inkscape:connector-curvature="0" /><path
           d="m 100.93334,72.65834 c -1.475004,0 -2.358335,-1.175003 -2.358335,-2.433334 0,-1.350006 1.008331,-2.333336 2.275005,-2.333336 1.28333,0 2.34166,0.925003 2.34166,2.441666 0,1.408333 -1.075,2.325004 -2.25833,2.325004 z m -0.15,-0.258338 c 0.91667,0 1.69167,-0.783333 1.69167,-2.258332 0,-1.341667 -0.69167,-1.991668 -1.475,-1.991668 -0.99167,0 -1.708338,0.958335 -1.708338,2.275001 0,1.316666 0.708338,1.974999 1.491668,1.974999 z"
           style="fill:#000000;fill-opacity:1;fill-rule:evenodd;stroke:none"
           id="path56"
           inkscape:connector-curvature="0" /><path
           d="m 107.88334,68.125 c -0.15,0.04167 -0.325,0.116669 -0.5,0.333336 -0.175,0.175003 -0.31667,0.358337 -0.56667,0.724998 -0.21666,0.316666 -0.50833,0.783333 -0.625,1.008339 0.50834,0.23333 0.88333,0.599999 0.88333,1.199997 0,0.425003 -0.17499,0.741669 -0.46666,0.916664 -0.25833,0.175003 -0.6,0.241669 -1.10833,0.241669 l -1.74167,0 0,-0.199997 c 0.55,-0.04167 0.60833,-0.06667 0.60833,-0.658333 l 0,-2.816673 c 0,-0.59166 -0.0583,-0.633331 -0.63333,-0.674995 l 0,-0.200005 1.83333,0 0,0.200005 c -0.55,0.04166 -0.61666,0.08333 -0.61666,0.674995 l 0,1.116669 0.22499,0 c 0.35834,0 0.47501,-0.09167 0.59167,-0.283333 0.21667,-0.341667 0.46667,-0.775002 0.70834,-1.116669 0.31666,-0.458328 0.59999,-0.616661 1.13333,-0.641662 0.0833,-0.0083 0.16667,-0.0083 0.25,-0.0083 l 0.025,0.183327 z m -2.93333,2.083336 0,1.733337 c 0,0.191666 0.025,0.274994 0.075,0.308327 0.0583,0.04167 0.175,0.06667 0.38333,0.06667 0.525,0 1.01666,-0.275001 1.01666,-1.033333 0,-0.375 -0.10833,-0.65834 -0.38333,-0.866668 -0.175,-0.150002 -0.40833,-0.208336 -0.75833,-0.208336 l -0.33333,0 z"
           style="fill:#000000;fill-opacity:1;fill-rule:evenodd;stroke:none"
           id="path58"
           inkscape:connector-curvature="0" /><path
           d="m 112.13334,72.65834 c -1.475,0 -2.35833,-1.175003 -2.35833,-2.433334 0,-1.350006 1.00833,-2.333336 2.27499,-2.333336 1.28334,0 2.34167,0.925003 2.34167,2.441666 0,1.408333 -1.075,2.325004 -2.25833,2.325004 z m -0.15,-0.258338 c 0.91667,0 1.69166,-0.783333 1.69166,-2.258332 0,-1.341667 -0.69166,-1.991668 -1.47499,-1.991668 -0.99167,0 -1.70834,0.958335 -1.70834,2.275001 0,1.316666 0.70834,1.974999 1.49167,1.974999 z"
           style="fill:#000000;fill-opacity:1;fill-rule:evenodd;stroke:none"
           id="path60"
           inkscape:connector-curvature="0" /><path
           d="m 119.23334,69.225006 c -0.35,-0.691666 -0.73333,-1.075004 -1.44167,-1.075004 -1.06666,0 -1.83333,0.89167 -1.83333,2.200004 0,1.066666 0.61666,2.049996 1.79167,2.049996 0.75,0 1.17499,-0.299996 1.35833,-1.041665 l 0.20833,0.05833 c -0.0417,0.366668 -0.0833,0.658333 -0.14167,1.049995 -0.19166,0.03333 -0.67499,0.191673 -1.24166,0.191673 -1.55833,0 -2.69166,-0.966667 -2.69166,-2.450004 0,-1.10833 0.76666,-2.316666 2.50833,-2.316666 0.5,0 1.09167,0.14167 1.28333,0.183335 0.125,0.241668 0.3,0.758331 0.4,1.083335 l -0.2,0.06667 z"
           style="fill:#000000;fill-opacity:1;fill-rule:evenodd;stroke:none"
           id="path62"
           inkscape:connector-curvature="0" /><path
           d="m 124.70001,72.550003 -1.825,0 0,-0.199997 c 0.54999,-0.04167 0.6,-0.08334 0.6,-0.658333 l 0,-1.133339 -2.38333,0 0,1.133339 c 0,0.574997 0.0583,0.616661 0.58332,0.658333 l 0,0.199997 -1.80832,0 0,-0.199997 c 0.57499,-0.04167 0.63333,-0.075 0.63333,-0.658333 l 0,-2.833336 c 0,-0.583335 -0.0583,-0.616668 -0.61667,-0.658332 l 0,-0.200005 1.84167,0 0,0.200005 c -0.575,0.04166 -0.63333,0.08333 -0.63333,0.658332 l 0,1.391663 2.38333,0 0,-1.391663 c 0,-0.583335 -0.05,-0.616668 -0.65834,-0.658332 l 0,-0.200005 1.88334,0 0,0.200005 c -0.575,0.04166 -0.62501,0.075 -0.62501,0.658332 l 0,2.833336 c 0,0.574997 0.05,0.616661 0.62501,0.658333 l 0,0.199997 z"
           style="fill:#000000;fill-opacity:1;fill-rule:evenodd;stroke:none"
           id="path64"
           inkscape:connector-curvature="0" /><path
           d="m 131.375,68 0,0.200005 c -0.45,0.04166 -0.54999,0.1 -0.76666,0.699997 -0.45,1.224998 -0.91666,2.558334 -1.34999,3.758338 l -0.21668,-0.06667 -1.44999,-3.666664 c -0.24167,-0.625 -0.33334,-0.666664 -0.78334,-0.724998 l 0,-0.200005 1.525,0 0,0.200005 c -0.53334,0.04166 -0.59166,0.116668 -0.44167,0.558334 0.0917,0.291664 0.2,0.583328 0.30834,0.900001 l 1.49167,0 c 0.14999,-0.425003 0.29166,-0.808334 0.38333,-1.075004 0.0917,-0.275002 0.025,-0.333336 -0.40834,-0.383331 l 0,-0.200005 1.70833,0 z m -1.78333,1.958336 -1.28334,0 c 0.21668,0.575004 0.43334,1.191666 0.65834,1.783333 l 0.008,0 0.61666,-1.783333 z"
           style="fill:#000000;fill-opacity:1;fill-rule:evenodd;stroke:none"
           id="path66"
           inkscape:connector-curvature="0" /><path
           d="m 136.5,72.550003 -1.64999,0 0,-0.199997 c 0.49166,-0.01667 0.64999,-0.108337 0.68333,-0.433334 0.025,-0.191666 0.05,-0.508332 0.05,-1.158333 l 0,-1.724999 -0.025,0 -2.92498,3.516663 -1.02501,0 0,-0.199997 c 0.32499,-0.025 0.475,-0.08334 0.625,-0.258339 0.125,-0.158333 0.13333,-0.191665 0.13333,-0.699997 l 0,-1.541664 c 0,-0.64167 -0.0167,-0.983337 -0.0417,-1.200004 -0.0333,-0.341668 -0.21667,-0.433335 -0.61667,-0.449997 l 0,-0.200005 1.65833,0 0,0.200005 c -0.47499,0.025 -0.63333,0.108329 -0.66666,0.466667 -0.025,0.199997 -0.0417,0.533333 -0.0417,1.183334 l 0,1.758331 0.008,0 2.98334,-3.675003 0.21666,0 0,2.825005 c 0,0.650001 0.0167,0.966667 0.0417,1.183334 0.0333,0.299996 0.2,0.391663 0.59166,0.408333 l 0,0.199997 z"
           style="fill:#000000;fill-opacity:1;fill-rule:evenodd;stroke:none"
           id="path68"
           inkscape:connector-curvature="0" /><path
           d="m 137.10001,72.550003 0,-0.199997 c 0.54167,-0.04167 0.6,-0.06667 0.6,-0.666672 l 0,-2.816665 c 0,-0.591667 -0.0583,-0.633332 -0.65834,-0.674996 l 0,-0.191673 1.65001,0 c 0.84999,0 1.54999,0.175003 2.075,0.583336 0.53332,0.400001 0.86667,1.025001 0.86667,1.866669 0,0.658332 -0.25,1.166664 -0.60001,1.508331 -0.43333,0.416664 -1.08333,0.591667 -1.97501,0.591667 l -1.95832,0 z m 1.19166,-0.724998 c 0,0.283332 0.025,0.358329 0.0917,0.400001 0.0667,0.05833 0.25,0.09167 0.54165,0.09167 0.47501,0 0.875,-0.09167 1.19167,-0.283333 0.55833,-0.333335 0.82501,-0.958335 0.82501,-1.683334 0,-1.116669 -0.60834,-2.100006 -1.90834,-2.100006 -0.50833,0 -0.74167,0.133339 -0.74167,0.666672 l 0,2.908333 z"
           style="fill:#000000;fill-opacity:1;fill-rule:evenodd;stroke:none"
           id="path70"
           inkscape:connector-curvature="0" /><path
           d="m 146.41667,68.125 c -0.14999,0.04167 -0.325,0.116669 -0.5,0.333336 -0.175,0.175003 -0.31666,0.358337 -0.56666,0.724998 -0.21666,0.316666 -0.50834,0.783333 -0.625,1.008339 0.50833,0.23333 0.88333,0.599999 0.88333,1.199997 0,0.425003 -0.17501,0.741669 -0.46666,0.916664 -0.25833,0.175003 -0.60001,0.241669 -1.10834,0.241669 l -1.74167,0 0,-0.199997 c 0.55,-0.04167 0.60834,-0.06667 0.60834,-0.658333 l 0,-2.816673 c 0,-0.59166 -0.0583,-0.633331 -0.63333,-0.674995 l 0,-0.200005 1.83333,0 0,0.200005 c -0.55001,0.04166 -0.61667,0.08333 -0.61667,0.674995 l 0,1.116669 0.225,0 c 0.35834,0 0.47499,-0.09167 0.59166,-0.283333 0.21668,-0.341667 0.46668,-0.775002 0.70835,-1.116669 0.31666,-0.458328 0.59999,-0.616661 1.13333,-0.641662 0.0833,-0.0083 0.16665,-0.0083 0.25,-0.0083 l 0.025,0.183327 z m -2.93333,2.083336 0,1.733337 c 0,0.191666 0.025,0.274994 0.075,0.308327 0.0583,0.04167 0.17501,0.06667 0.38335,0.06667 0.52499,0 1.01666,-0.275001 1.01666,-1.033333 0,-0.375 -0.10833,-0.65834 -0.38333,-0.866668 -0.175,-0.150002 -0.40834,-0.208336 -0.75833,-0.208336 l -0.33334,0 z"
           style="fill:#000000;fill-opacity:1;fill-rule:evenodd;stroke:none"
           id="path72"
           inkscape:connector-curvature="0" /><path
           d="m 151.10834,68 0,0.200005 c -0.45,0.04166 -0.55001,0.1 -0.76667,0.699997 -0.44999,1.224998 -0.91667,2.558334 -1.35,3.758338 l -0.21666,-0.06667 -1.45,-3.666664 c -0.24167,-0.625 -0.33334,-0.666664 -0.78334,-0.724998 l 0,-0.200005 1.52501,0 0,0.200005 c -0.53334,0.04166 -0.59167,0.116668 -0.44167,0.558334 0.0917,0.291664 0.2,0.583328 0.30832,0.900001 l 1.49167,0 c 0.15001,-0.425003 0.29167,-0.808334 0.38333,-1.075004 0.0917,-0.275002 0.025,-0.333336 -0.40832,-0.383331 l 0,-0.200005 1.70833,0 z m -1.78333,1.958336 -1.28334,0 c 0.21668,0.575004 0.43334,1.191666 0.65834,1.783333 l 0.008,0 0.61667,-1.783333 z"
           style="fill:#000000;fill-opacity:1;fill-rule:evenodd;stroke:none"
           id="path74"
           inkscape:connector-curvature="0" /><path
           d="m 43.925003,64.150002 0,-0.199997 c 0.516666,-0.03333 0.575001,-0.05833 0.575001,-0.675003 l 0,-2.8 c 0,-0.583332 -0.05833,-0.633331 -0.616669,-0.674999 l 0,-0.200001 1.891667,0 0,0.200001 c -0.625,0.04167 -0.691666,0.075 -0.691666,0.666668 l 0,1.099998 0.516666,-0.133331 c 0.075,-0.0083 0.208332,-0.0083 0.316666,0.0083 0.683334,0.08333 1.366669,0.525002 1.366669,1.433335 0,0.458332 -0.175,0.774998 -0.450001,0.991665 -0.283333,0.200004 -0.683334,0.283333 -1.183334,0.283333 l -1.724999,0 z m 1.158333,-0.633332 c 0,0.200001 0.025,0.283333 0.075,0.325001 0.05,0.05 0.2,0.08333 0.391666,0.08333 0.575001,0 1.058334,-0.325001 1.058334,-1.075001 0,-0.891666 -0.558334,-1.133331 -1.01667,-1.133331 -0.224998,0 -0.416664,0.05 -0.508331,0.08333 l 0,1.716667 z"
           style="fill:#000000;fill-opacity:1;fill-rule:evenodd;stroke:none"
           id="path76"
           inkscape:connector-curvature="0" /><path
           d="m 52.01667,59.725002 c -0.150001,0.04167 -0.325001,0.116669 -0.5,0.333336 -0.174999,0.174999 -0.316665,0.35833 -0.566669,0.724999 -0.216664,0.316665 -0.508332,0.783332 -0.625,1.008335 0.508335,0.23333 0.883335,0.599998 0.883335,1.199997 0,0.425003 -0.174999,0.741668 -0.466667,0.916668 -0.258332,0.174999 -0.599999,0.241665 -1.108334,0.241665 l -1.741665,0 0,-0.199997 c 0.549999,-0.04167 0.608334,-0.06667 0.608334,-0.658333 l 0,-2.81667 c 0,-0.591667 -0.05833,-0.633331 -0.633335,-0.674999 l 0,-0.200001 1.833332,0 0,0.200001 c -0.549999,0.04167 -0.616665,0.08333 -0.616665,0.674999 l 0,1.116669 0.224998,0 c 0.358334,0 0.475003,-0.09167 0.591668,-0.283333 0.216667,-0.341667 0.466667,-0.775001 0.708335,-1.116669 0.316666,-0.458332 0.599999,-0.616664 1.133332,-0.641666 0.08334,-0.0083 0.166668,-0.0083 0.25,-0.0083 l 0.025,0.183334 z m -2.933334,2.083336 0,1.733334 c 0,0.191665 0.025,0.274997 0.075,0.30833 0.05833,0.04167 0.174999,0.06667 0.383331,0.06667 0.525001,0 1.016666,-0.275002 1.016666,-1.033337 0,-0.375 -0.108333,-0.658333 -0.383331,-0.866665 -0.174999,-0.150001 -0.408333,-0.208332 -0.758335,-0.208332 l -0.333332,0 z"
           style="fill:#000000;fill-opacity:1;fill-rule:evenodd;stroke:none"
           id="path78"
           inkscape:connector-curvature="0" /><path
           d="m 54.533337,64.258339 c -1.475003,0 -2.358334,-1.175003 -2.358334,-2.433334 0,-1.350003 1.008331,-2.333336 2.275002,-2.333336 1.283332,0 2.341663,0.924999 2.341663,2.441669 0,1.408333 -1.074997,2.325001 -2.258331,2.325001 z M 54.383335,64 c 0.916668,0 1.69167,-0.783329 1.69167,-2.258331 0,-1.341667 -0.69167,-1.991665 -1.475003,-1.991665 -0.991665,0 -1.708332,0.958332 -1.708332,2.274998 0,1.316669 0.708332,1.974998 1.491665,1.974998 z"
           style="fill:#000000;fill-opacity:1;fill-rule:evenodd;stroke:none"
           id="path80"
           inkscape:connector-curvature="0" /><path
           d="m 62.175003,61.716671 -1.775001,0 0,-0.200001 c 0.691669,-0.05 0.733333,-0.1 0.733333,-0.600002 l 0,-0.591663 c 0,-0.300003 -0.08333,-0.391667 -0.224998,-0.466668 -0.150002,-0.075 -0.366669,-0.116668 -0.608334,-0.116668 -1.349998,0 -1.941666,1.174999 -1.941666,2.191669 0,1.283333 0.783333,2.075001 1.849999,2.075001 0.674999,0 1.200001,-0.233337 1.366669,-1.091667 l 0.199997,0.04166 c -0.05,0.466667 -0.09166,0.850002 -0.10833,1.091667 -0.233334,0.05 -0.76667,0.208336 -1.350003,0.208336 -1.375,0 -2.674999,-0.791668 -2.674999,-2.408337 0,-1.399997 1.024998,-2.358333 2.566666,-2.358333 0.558334,0 1.133335,0.158333 1.566666,0.258335 -0.04167,0.191665 -0.04167,0.416664 -0.04167,0.658333 l 0,0.608333 c 0,0.408333 0.025,0.441666 0.441666,0.5 l 0,0.200001 z"
           style="fill:#000000;fill-opacity:1;fill-rule:evenodd;stroke:none"
           id="path82"
           inkscape:connector-curvature="0" /><path
           d="m 66.816673,59.725002 c -0.150001,0.04167 -0.325004,0.116669 -0.5,0.333336 C 66.14167,60.233337 66,60.416668 65.75,60.783337 c -0.21666,0.316665 -0.508331,0.783332 -0.625,1.008335 0.508339,0.23333 0.883339,0.599998 0.883339,1.199997 0,0.425003 -0.175003,0.741668 -0.466667,0.916668 -0.258332,0.174999 -0.599999,0.241665 -1.108338,0.241665 l -1.741665,0 0,-0.199997 c 0.55,-0.04167 0.608334,-0.06667 0.608334,-0.658333 l 0,-2.81667 c 0,-0.591667 -0.05833,-0.633331 -0.633331,-0.674999 l 0,-0.200001 1.833328,0 0,0.200001 c -0.549995,0.04167 -0.616665,0.08333 -0.616665,0.674999 l 0,1.116669 0.225002,0 c 0.35833,0 0.474999,-0.09167 0.591668,-0.283333 0.216667,-0.341667 0.466667,-0.775001 0.708335,-1.116669 0.316666,-0.458332 0.599999,-0.616664 1.133332,-0.641666 0.08333,-0.0083 0.166664,-0.0083 0.25,-0.0083 l 0.025,0.183334 z m -2.933338,2.083336 0,1.733334 c 0,0.191665 0.025,0.274997 0.075,0.30833 0.05833,0.04167 0.175003,0.06667 0.383331,0.06667 0.525002,0 1.01667,-0.275002 1.01667,-1.033337 0,-0.375 -0.108337,-0.658333 -0.383331,-0.866665 -0.175003,-0.150001 -0.408333,-0.208332 -0.758339,-0.208332 l -0.333332,0 z"
           style="fill:#000000;fill-opacity:1;fill-rule:evenodd;stroke:none"
           id="path84"
           inkscape:connector-curvature="0" /><path
           d="m 71.508339,59.600002 0,0.200001 c -0.450005,0.04167 -0.550003,0.1 -0.76667,0.700001 -0.449997,1.224998 -0.916664,2.558334 -1.349999,3.758335 l -0.216667,-0.06667 -1.449997,-3.666671 c -0.241669,-0.625 -0.333336,-0.666665 -0.783333,-0.724999 l 0,-0.200001 1.524994,0 0,0.200001 c -0.533333,0.04167 -0.591667,0.116665 -0.441665,0.558334 0.09167,0.291665 0.200004,0.583332 0.308334,0.899998 l 1.491669,0 c 0.150001,-0.424999 0.291664,-0.80833 0.383331,-1.074997 0.09167,-0.275001 0.025,-0.333336 -0.408333,-0.383335 l 0,-0.200001 1.708336,0 z m -1.783333,1.958336 -1.283333,0 c 0.216667,0.574997 0.433327,1.191666 0.658333,1.783333 l 0.0083,0 0.616669,-1.783333 z"
           style="fill:#000000;fill-opacity:1;fill-rule:evenodd;stroke:none"
           id="path86"
           inkscape:connector-curvature="0" /><path
           d="m 77.758339,59.600002 0,0.200001 c -0.608337,0.04167 -0.625,0.08333 -0.650002,0.825001 l -0.05833,2.541668 c -0.025,0.716663 0.01667,0.73333 0.64167,0.783333 l 0,0.199997 -1.191665,0 -1.625,-3.508332 -1.591668,3.508332 -1.150001,0 0,-0.199997 c 0.633331,-0.05833 0.674995,-0.08334 0.60833,-1 l -0.1,-1.450001 c -0.05,-0.741669 -0.09167,-1.041668 -0.133331,-1.283333 -0.05,-0.291668 -0.183334,-0.375 -0.591667,-0.416668 l 0,-0.200001 1.633331,0 0,0.200001 c -0.474998,0.04167 -0.633331,0.09167 -0.650001,0.433334 -0.0083,0.274998 -0.0083,0.575001 0.025,1.158333 l 0.1,1.991665 0.01667,0 1.566665,-3.733333 0.141671,0 1.708328,3.833335 0.025,0 0.03333,-2.858333 c 0,-0.741669 -0.025,-0.783333 -0.599998,-0.825001 l 0,-0.200001 1.841667,0 z"
           style="fill:#000000;fill-opacity:1;fill-rule:evenodd;stroke:none"
           id="path88"
           inkscape:connector-curvature="0" /><path
           d="m 81.616669,60.733337 c -0.09167,-0.275001 -0.224999,-0.516666 -0.349999,-0.658332 -0.150001,-0.183335 -0.349998,-0.233334 -0.883331,-0.233334 -0.349999,0 -0.591667,0 -0.724999,0.08333 -0.125,0.09167 -0.166671,0.241665 -0.166671,0.575001 l 0,1.316665 0.666671,0 c 0.60833,0 0.658333,-0.04167 0.75,-0.533332 l 0.199997,0 0,1.333332 -0.199997,0 C 80.82501,62.15 80.78334,62.091669 80.150002,62.091669 l -0.658333,0 0,1.599998 c 0,0.200001 0.01667,0.216668 0.233337,0.216668 l 0.525002,0 c 0.508331,0 0.699997,-0.04167 0.791664,-0.200001 0.09167,-0.149998 0.166664,-0.299999 0.224998,-0.591667 l 0.208336,0.025 c -0.025,0.358334 -0.05833,0.833332 -0.05833,1.008332 l -3.125,0 0,-0.199997 c 0.549995,-0.04167 0.60833,-0.06667 0.60833,-0.69167 l 0,-2.783333 c 0,-0.575 -0.05833,-0.633331 -0.699997,-0.674999 l 0,-0.200001 3.375,0 c 0.06667,0.216667 0.208335,0.875 0.25,1.108334 l -0.208336,0.025 z"
           style="fill:#000000;fill-opacity:1;fill-rule:evenodd;stroke:none"
           id="path90"
           inkscape:connector-curvature="0" /><path
           d="m 86.550003,59.725002 c -0.150001,0.04167 -0.324997,0.116669 -0.5,0.333336 -0.174995,0.174999 -0.316666,0.35833 -0.566666,0.724999 -0.216667,0.316665 -0.508331,0.783332 -0.625,1.008335 0.508332,0.23333 0.883332,0.599998 0.883332,1.199997 0,0.425003 -0.174996,0.741668 -0.466667,0.916668 -0.258332,0.174999 -0.599999,0.241665 -1.10833,0.241665 l -1.741669,0 0,-0.199997 c 0.550003,-0.04167 0.608337,-0.06667 0.608337,-0.658333 l 0,-2.81667 c 0,-0.591667 -0.05833,-0.633331 -0.633338,-0.674999 l 0,-0.200001 1.833335,0 0,0.200001 c -0.550003,0.04167 -0.616668,0.08333 -0.616668,0.674999 l 0,1.116669 0.225006,0 c 0.35833,0 0.474998,-0.09167 0.591659,-0.283333 0.216668,-0.341667 0.466668,-0.775001 0.708336,-1.116669 0.316666,-0.458332 0.599999,-0.616664 1.133332,-0.641666 0.08334,-0.0083 0.166671,-0.0083 0.25,-0.0083 l 0.025,0.183334 z m -2.933334,2.083336 0,1.733334 c 0,0.191665 0.025,0.274997 0.075,0.30833 0.05833,0.04167 0.174996,0.06667 0.383332,0.06667 0.525001,0 1.01667,-0.275002 1.01667,-1.033337 0,-0.375 -0.108338,-0.658333 -0.383339,-0.866665 -0.174996,-0.150001 -0.408333,-0.208332 -0.758331,-0.208332 l -0.333336,0 z"
           style="fill:#000000;fill-opacity:1;fill-rule:evenodd;stroke:none"
           id="path92"
           inkscape:connector-curvature="0" /><path
           d="m 88.65834,59.600002 0,0.200001 c -0.575004,0.04167 -0.633338,0.075 -0.633338,0.674999 l 0,2.8 c 0,0.591667 0.05833,0.633335 0.633338,0.675003 l 0,0.199997 -1.858337,0 0,-0.199997 c 0.575005,-0.04167 0.633331,-0.08334 0.633331,-0.675003 l 0,-2.8 c 0,-0.591667 -0.05833,-0.633331 -0.633331,-0.674999 l 0,-0.200001 1.858337,0 z"
           style="fill:#000000;fill-opacity:1;fill-rule:evenodd;stroke:none"
           id="path94"
           inkscape:connector-curvature="0" /><path
           d="m 93.966675,64.150002 -1.650002,0 0,-0.199997 c 0.491669,-0.01667 0.650002,-0.108334 0.683335,-0.433335 0.02499,-0.191665 0.05,-0.508335 0.05,-1.158333 l 0,-1.725002 -0.025,0 -2.924996,3.516667 -1.025001,0 0,-0.199997 c 0.324997,-0.025 0.474998,-0.08334 0.625,-0.258336 0.125,-0.158332 0.133331,-0.191665 0.133331,-0.7 l 0,-1.541664 c 0,-0.641667 -0.01666,-0.983334 -0.04166,-1.200001 -0.03333,-0.341667 -0.216667,-0.433335 -0.616669,-0.450001 l 0,-0.200001 1.658333,0 0,0.200001 c -0.474999,0.025 -0.633331,0.108334 -0.666664,0.466667 -0.025,0.200001 -0.04166,0.533333 -0.04166,1.183335 l 0,1.758331 0.0083,0 2.98333,-3.674999 0.216667,0 0,2.825 c 0,0.649998 0.01667,0.966668 0.04167,1.183335 0.03333,0.299999 0.199997,0.391666 0.591667,0.408333 l 0,0.199997 z"
           style="fill:#000000;fill-opacity:1;fill-rule:evenodd;stroke:none"
           id="path96"
           inkscape:connector-curvature="0" /><path
           d="m 98.975006,61.716671 -1.775001,0 0,-0.200001 c 0.691665,-0.05 0.733337,-0.1 0.733337,-0.600002 l 0,-0.591663 c 0,-0.300003 -0.08334,-0.391667 -0.225006,-0.466668 -0.149994,-0.075 -0.366661,-0.116668 -0.60833,-0.116668 -1.349998,0 -1.941666,1.174999 -1.941666,2.191669 0,1.283333 0.783333,2.075001 1.849999,2.075001 0.675003,0 1.199997,-0.233337 1.366669,-1.091667 l 0.199997,0.04166 c -0.05,0.466667 -0.09167,0.850002 -0.10833,1.091667 -0.233338,0.05 -0.76667,0.208336 -1.350006,0.208336 -1.375,0 -2.674996,-0.791668 -2.674996,-2.408337 0,-1.399997 1.025002,-2.358333 2.566666,-2.358333 0.558334,0 1.133331,0.158333 1.566666,0.258335 -0.04167,0.191665 -0.04167,0.416664 -0.04167,0.658333 l 0,0.608333 c 0,0.408333 0.025,0.441666 0.441666,0.5 l 0,0.200001 z"
           style="fill:#000000;fill-opacity:1;fill-rule:evenodd;stroke:none"
           id="path98"
           inkscape:connector-curvature="0" /><path
           d="m 102.20001,63.125004 c -0.0583,0.441665 -0.0917,0.724998 -0.12501,0.966663 -0.26666,0.08334 -0.55833,0.166672 -0.88333,0.166672 -0.9,0 -1.441662,-0.575001 -1.441662,-1.250004 0,-0.791664 0.708332,-1.133331 1.158332,-1.375 0.525,-0.283333 0.90833,-0.524998 0.90833,-1.049999 0,-0.508331 -0.30833,-0.833332 -0.84166,-0.833332 -0.725,0 -1.041668,0.700001 -1.141674,1.133331 l -0.216667,-0.05 c 0.05,-0.333332 0.14167,-0.941666 0.191673,-1.083332 0.075,-0.04167 0.174995,-0.09167 0.349998,-0.150002 0.16666,-0.05 0.4,-0.108333 0.68334,-0.108333 0.93332,0 1.55833,0.591667 1.55833,1.325 0,0.791668 -0.65834,1.116669 -1.20834,1.400002 -0.55833,0.283333 -0.89167,0.524998 -0.89167,1.033333 0,0.383331 0.23334,0.766666 0.775,0.766666 0.60834,0 0.80001,-0.483333 0.91667,-0.924999 l 0.20834,0.03333 z"
           style="fill:#000000;fill-opacity:1;fill-rule:evenodd;stroke:none"
           id="path100"
           inkscape:connector-curvature="0" /><path
           d="m 107.54167,64.150002 -1.65833,0 0,-0.199997 c 0.49167,-0.03333 0.64167,-0.116669 0.675,-0.391667 0.025,-0.216667 0.05,-0.508335 0.05,-1.150001 l 0,-0.525002 c 0,-1.158333 -0.31667,-2 -1.325,-2 -0.86667,0 -1.31666,0.650002 -1.31666,1.775002 l 0,1.591667 c 0,0.625 0.0583,0.666668 0.59999,0.700001 l 0,0.199997 -1.8,0 0,-0.199997 c 0.54167,-0.04167 0.60834,-0.075 0.60834,-0.700001 l 0,-1.75 c 0,-0.825001 0.19166,-1.341667 0.61666,-1.658333 0.30833,-0.241669 0.70834,-0.341667 1.11667,-0.341667 0.46666,0 0.93333,0.149998 1.25833,0.483333 0.4,0.425 0.525,1.024998 0.525,1.849999 l 0,0.575001 c 0,0.641666 0.025,0.941665 0.0417,1.133335 0.0333,0.291664 0.19167,0.383331 0.60833,0.408333 l 0,0.199997 z"
           style="fill:#000000;fill-opacity:1;fill-rule:evenodd;stroke:none"
           id="path102"
           inkscape:connector-curvature="0" /><path
           d="m 108.05834,64.150002 0,-0.199997 c 0.51666,-0.03333 0.575,-0.05833 0.575,-0.675003 l 0,-2.8 c 0,-0.583332 -0.0583,-0.633331 -0.61667,-0.674999 l 0,-0.200001 1.89167,0 0,0.200001 c -0.625,0.04167 -0.69166,0.075 -0.69166,0.666668 l 0,1.099998 0.51666,-0.133331 c 0.075,-0.0083 0.20833,-0.0083 0.31666,0.0083 0.68334,0.08333 1.36667,0.525002 1.36667,1.433335 0,0.458332 -0.175,0.774998 -0.44999,0.991665 -0.28334,0.200004 -0.68334,0.283333 -1.18334,0.283333 l -1.725,0 z m 1.15834,-0.633332 c 0,0.200001 0.025,0.283333 0.075,0.325001 0.05,0.05 0.2,0.08333 0.39167,0.08333 0.575,0 1.05833,-0.325001 1.05833,-1.075001 0,-0.891666 -0.55833,-1.133331 -1.01666,-1.133331 -0.225,0 -0.41667,0.05 -0.50833,0.08333 l 0,1.716667 z"
           style="fill:#000000;fill-opacity:1;fill-rule:evenodd;stroke:none"
           id="path104"
           inkscape:connector-curvature="0" /><path
           d="m 112.05834,64.150002 0,-0.199997 c 0.51666,-0.03333 0.575,-0.05833 0.575,-0.675003 l 0,-2.8 c 0,-0.583332 -0.0583,-0.633331 -0.61667,-0.674999 l 0,-0.200001 1.89167,0 0,0.200001 c -0.625,0.04167 -0.69166,0.075 -0.69166,0.666668 l 0,1.099998 0.51666,-0.133331 c 0.075,-0.0083 0.20833,-0.0083 0.31666,0.0083 0.68334,0.08333 1.36667,0.525002 1.36667,1.433335 0,0.458332 -0.17499,0.774998 -0.44999,0.991665 -0.28334,0.200004 -0.68334,0.283333 -1.18334,0.283333 l -1.725,0 z m 1.15834,-0.633332 c 0,0.200001 0.025,0.283333 0.075,0.325001 0.05,0.05 0.20001,0.08333 0.39167,0.08333 0.575,0 1.05834,-0.325001 1.05834,-1.075001 0,-0.891666 -0.55834,-1.133331 -1.01667,-1.133331 -0.225,0 -0.41667,0.05 -0.50833,0.08333 l 0,1.716667 z"
           style="fill:#000000;fill-opacity:1;fill-rule:evenodd;stroke:none"
           id="path106"
           inkscape:connector-curvature="0" /><path
           d="m 116.03334,64.150002 0,-0.199997 c 0.54166,-0.04167 0.6,-0.06667 0.6,-0.666668 l 0,-2.816666 c 0,-0.591667 -0.0583,-0.633335 -0.65833,-0.675003 l 0,-0.191666 1.65,0 c 0.85,0 1.54999,0.175 2.075,0.583336 0.53333,0.399998 0.86666,1.024998 0.86666,1.866665 0,0.658333 -0.25,1.166668 -0.59999,1.508335 -0.43334,0.416664 -1.08334,0.591664 -1.975,0.591664 l -1.95834,0 z m 1.19167,-0.724999 c 0,0.283333 0.025,0.358334 0.0917,0.400002 0.0667,0.05833 0.25,0.09167 0.54167,0.09167 0.475,0 0.875,-0.09167 1.19166,-0.283337 0.55834,-0.333332 0.82501,-0.958332 0.82501,-1.68333 0,-1.116669 -0.60834,-2.100003 -1.90833,-2.100003 -0.50834,0 -0.74167,0.133335 -0.74167,0.666668 l 0,2.908333 z"
           style="fill:#000000;fill-opacity:1;fill-rule:evenodd;stroke:none"
           id="path108"
           inkscape:connector-curvature="0" /><path
           d="m 125.21668,59.725002 c -0.15001,0.04167 -0.32501,0.116669 -0.5,0.333336 -0.17501,0.174999 -0.31667,0.35833 -0.56667,0.724999 -0.21667,0.316665 -0.50834,0.783332 -0.625,1.008335 0.50833,0.23333 0.88333,0.599998 0.88333,1.199997 0,0.425003 -0.175,0.741668 -0.46667,0.916668 -0.25833,0.174999 -0.59999,0.241665 -1.10833,0.241665 l -1.74166,0 0,-0.199997 c 0.54999,-0.04167 0.60833,-0.06667 0.60833,-0.658333 l 0,-2.81667 c 0,-0.591667 -0.0583,-0.633331 -0.63334,-0.674999 l 0,-0.200001 1.83334,0 0,0.200001 c -0.55,0.04167 -0.61667,0.08333 -0.61667,0.674999 l 0,1.116669 0.225,0 c 0.35834,0 0.475,-0.09167 0.59167,-0.283333 0.21666,-0.341667 0.46666,-0.775001 0.70833,-1.116669 0.31667,-0.458332 0.6,-0.616664 1.13333,-0.641666 0.0833,-0.0083 0.16667,-0.0083 0.25,-0.0083 l 0.025,0.183334 z m -2.93334,2.083336 0,1.733334 c 0,0.191665 0.025,0.274997 0.075,0.30833 0.0583,0.04167 0.175,0.06667 0.38334,0.06667 0.52499,0 1.01666,-0.275002 1.01666,-1.033337 0,-0.375 -0.10833,-0.658333 -0.38333,-0.866665 -0.175,-0.150001 -0.40833,-0.208332 -0.75833,-0.208332 l -0.33334,0 z"
           style="fill:#000000;fill-opacity:1;fill-rule:evenodd;stroke:none"
           id="path110"
           inkscape:connector-curvature="0" /><path
           d="m 130.04167,59.600002 0,0.200001 c -0.45,0.04167 -0.55,0.1 -0.76666,0.700001 -0.45,1.224998 -0.91667,2.558334 -1.35001,3.758335 l -0.21666,-0.06667 -1.45,-3.666671 c -0.24167,-0.625 -0.33334,-0.666665 -0.78333,-0.724999 l 0,-0.200001 1.525,0 0,0.200001 c -0.53333,0.04167 -0.59167,0.116665 -0.44167,0.558334 0.0917,0.291665 0.2,0.583332 0.30834,0.899998 l 1.49166,0 c 0.15001,-0.424999 0.29167,-0.80833 0.38333,-1.074997 0.0917,-0.275001 0.025,-0.333336 -0.40833,-0.383335 l 0,-0.200001 1.70833,0 z m -1.78332,1.958336 -1.28334,0 c 0.21666,0.574997 0.43333,1.191666 0.65833,1.783333 l 0.008,0 0.61668,-1.783333 z"
           style="fill:#000000;fill-opacity:1;fill-rule:evenodd;stroke:none"
           id="path112"
           inkscape:connector-curvature="0" /><path
           d="m 134.84167,61.716671 -1.77499,0 0,-0.200001 c 0.69167,-0.05 0.73332,-0.1 0.73332,-0.600002 l 0,-0.591663 c 0,-0.300003 -0.0833,-0.391667 -0.22499,-0.466668 -0.15001,-0.075 -0.36667,-0.116668 -0.60834,-0.116668 -1.35,0 -1.94166,1.174999 -1.94166,2.191669 0,1.283333 0.78332,2.075001 1.84999,2.075001 0.675,0 1.20001,-0.233337 1.36667,-1.091667 l 0.20001,0.04166 c -0.05,0.466667 -0.0917,0.850002 -0.10834,1.091667 -0.23333,0.05 -0.76666,0.208336 -1.35,0.208336 -1.375,0 -2.67501,-0.791668 -2.67501,-2.408337 0,-1.399997 1.02501,-2.358333 2.56667,-2.358333 0.55833,0 1.13335,0.158333 1.56668,0.258335 -0.0417,0.191665 -0.0417,0.416664 -0.0417,0.658333 l 0,0.608333 c 0,0.408333 0.025,0.441666 0.44166,0.5 l 0,0.200001 z"
           style="fill:#000000;fill-opacity:1;fill-rule:evenodd;stroke:none"
           id="path114"
           inkscape:connector-curvature="0" /><path
           d="m 81.650002,170.95001 -14.441666,0 c -5.325001,0 -7.700001,1.61667 -7.700001,5.7 0,3.61667 2.375,5.23334 7.700001,5.23334 l 14.441666,0 0,-10.93334 z m 0,-25.56666 c 0,-0.95002 -0.191666,-1.51668 -2.658333,-1.70835 l 0,-1.14166 19.575004,0 0,1.14166 c -2.375,0.19167 -2.658333,0.75833 -2.658333,1.70835 l 0,44.29165 c 0,0.85001 0.283333,1.42501 2.658333,1.70835 l 0,1.14166 -34.025001,0 c -2.94167,0 -5.608334,-0.47501 -7.883335,-1.33333 -2.283333,-0.85001 -4.183335,-1.99167 -5.708336,-3.41667 -1.516667,-1.525 -2.658333,-3.23334 -3.416664,-5.13333 -0.758335,-1.90001 -1.141667,-3.90001 -1.141667,-5.99167 0,-2.09166 0.383332,-4.175 1.141667,-6.08333 0.758331,-1.90001 1.899997,-3.60834 3.416664,-5.03334 1.525001,-1.425 3.425003,-2.56667 5.708336,-3.425 2.275001,-0.84999 4.941665,-1.23333 7.883335,-1.23333 l 17.10833,0 0,-15.49166 z"
           style="fill:#000000;fill-opacity:1;fill-rule:evenodd;stroke:none"
           id="path116"
           inkscape:connector-curvature="0" /><path
           d="m 118.55,160.78334 -1.14166,0 c -0.28333,1.23334 -0.95,2.18333 -2.85,2.18333 l -17.675001,0 0,-8.84166 30.508331,0 c 0.95,0 1.42501,0.38334 1.70834,2.85833 l 1.14166,0 0,-16.25833 -1.14166,0 c -0.28333,1.71667 -0.75834,1.80833 -1.70834,1.80833 l -47.425003,0 0,1.14166 c 2.375,0.19167 2.658341,0.75833 2.658341,1.70835 l 0,44.29165 c 0,0.85001 -0.283341,1.42501 -2.658341,1.70835 l 0,1.14166 47.425003,0 c 0.95,0 1.42501,0.475 1.70834,2.65834 l 1.14166,0 0,-16.53334 -1.14166,0 c -0.28333,2.09166 -0.75834,2.65834 -1.70834,2.65834 l -30.508331,0 0,-7.88335 17.675001,0 c 1.9,0 2.56667,0.85001 2.85,2.18334 l 1.14166,0 0,-14.825 z"
           style="fill:#000000;fill-opacity:1;fill-rule:evenodd;stroke:none"
           id="path118"
           inkscape:connector-curvature="0" /><path
           d="m 20.9764,77.385941 136.63001,0"
           style="fill:none;stroke:#000000;stroke-width:0.5;stroke-linecap:butt;stroke-linejoin:miter;stroke-miterlimit:4;stroke-opacity:1;stroke-dasharray:none"
           id="path120"
           inkscape:connector-curvature="0" /><path
           d="m 29.725002,122.58334 2.741665,0 c 1.008335,0 1.458336,0.30833 1.458336,1.075 0,0.69167 -0.450001,0.99167 -1.458336,0.99167 l -2.741665,0 0,-2.06667 z m 0,-4.84166 c 0,-0.18334 0.04167,-0.29167 0.508333,-0.32501 l 0,-0.21666 -3.708333,0 0,0.21666 c 0.45,0.0333 0.5,0.14167 0.5,0.32501 l 0,8.38333 c 0,0.16666 -0.05,0.275 -0.5,0.325 l 0,0.21666 6.441665,0 c 0.558335,0 1.06667,-0.0917 1.5,-0.25 0.425003,-0.16666 0.791668,-0.375 1.075001,-0.65 0.291668,-0.28333 0.508335,-0.60833 0.650001,-0.96667 0.141667,-0.36666 0.216668,-0.74166 0.216668,-1.14166 0,-0.39167 -0.075,-0.79166 -0.216668,-1.15 -0.141666,-0.35833 -0.358333,-0.68334 -0.650001,-0.95 -0.283333,-0.275 -0.649998,-0.49167 -1.075001,-0.65 -0.43333,-0.15833 -0.941665,-0.23334 -1.5,-0.23334 l -3.241665,0 0,-2.93332 z"
           style="fill:#000000;fill-opacity:1;fill-rule:evenodd;stroke:none"
           id="path122"
           inkscape:connector-curvature="0" /><path
           d="m 46.191669,118.78334 c 0.233334,0 0.400002,0.14166 0.466668,0.45 l 0.216667,0 0,-2.35833 -0.175003,0 c -0.133332,0.325 -0.216664,0.325 -0.508332,0.325 l -8.025001,0 0,0.21666 c 0.25,0.0167 0.5,0.05 0.5,0.32501 l 0,6.84166 c 0,0.25 -0.25,0.28334 -0.5,0.31667 l 0,0.21667 8.166668,0 c 0.150001,0 0.325001,0.0583 0.325001,0.39999 l 0.216667,0 0,-2.41666 -0.216667,0 c 0,0.36667 -0.175,0.43333 -0.325001,0.43333 l -5.25,0 0,-1.45834 3.383331,0 c 0.14167,0 0.325001,0.075 0.325001,0.41668 l 0.216667,0 0,-2.34167 -0.216667,0 c 0,0.325 -0.183331,0.41666 -0.325001,0.41666 l -3.383331,0 0,-1.78333 5.108333,0 z"
           style="fill:#000000;fill-opacity:1;fill-rule:evenodd;stroke:none"
           id="path124"
           inkscape:connector-curvature="0" /><path
           d="m 51.941669,121.66667 2.558335,0 c 0.75,0 1.241665,0.32501 1.241665,0.96667 0,0.54166 -0.291664,0.975 -1.366665,0.975 l -2.433335,0 0,-1.94167 z m -2.266666,2.91667 c 0,0.25 -0.216667,0.28334 -0.400001,0.31667 l 0,0.21667 5.783332,0 c 1.800003,0 2.950001,-0.84167 2.950001,-2.5 0,-1.29168 -0.849998,-2 -2,-2.42501 l 1.600002,-2.41666 c 0.108334,-0.20001 0.366665,-0.35834 0.633332,-0.35834 l 0,-0.21666 -3.633332,0 0,0.21666 c 0.158333,0 0.433331,0.0333 0.433331,0.23334 0,0.05 -0.075,0.2 -0.199997,0.45 -0.125,0.23333 -0.275002,0.48333 -0.433334,0.775 -0.158333,0.26666 -0.325001,0.54166 -0.466668,0.79166 -0.141666,0.25 -0.233333,0.41667 -0.275001,0.48334 l -1.724999,0 0,-2.40833 c 0,-0.275 0.200001,-0.30834 0.466668,-0.32501 l 0,-0.21666 -3.091668,0 0,0.21666 c 0.141667,0.0167 0.358334,0.05 0.358334,0.32501 l 0,6.84166 z"
           style="fill:#000000;fill-opacity:1;fill-rule:evenodd;stroke:none"
           id="path126"
           inkscape:connector-curvature="0" /><path
           d="m 73.300003,120.65834 -0.216667,0 c -0.05,0.23333 -0.183334,0.40833 -0.541664,0.40833 l -3.349999,0 0,-1.66666 5.783333,0 c 0.174996,0 0.266663,0.0667 0.324997,0.53333 l 0.216667,0 0,-3.075 -0.216667,0 c -0.05833,0.325 -0.150001,0.34167 -0.324997,0.34167 l -8.983337,0 0,0.21666 c 0.450004,0.0333 0.5,0.14167 0.5,0.32501 l 0,8.38333 c 0,0.16666 -0.05,0.275 -0.5,0.325 l 0,0.21666 8.983337,0 c 0.174996,0 0.266663,0.0917 0.324997,0.50833 l 0.216667,0 0,-3.13333 -0.216667,0 c -0.05833,0.39167 -0.150001,0.5 -0.324997,0.5 l -5.783333,0 0,-1.49167 3.349999,0 c 0.35833,0 0.491668,0.15834 0.541664,0.41668 l 0.216667,0 0,-2.80834 z"
           style="fill:#000000;fill-opacity:1;fill-rule:evenodd;stroke:none"
           id="path128"
           inkscape:connector-curvature="0" /><path
           d="m 86.433334,124.70834 -1.299995,-2.63334 -0.25,0.12501 c 0.01666,0.0917 0.075,0.18333 0.075,0.30833 0,0.075 -0.09167,0.14167 -0.23333,0.25 -0.14167,0.0917 -0.341667,0.18333 -0.575004,0.25833 -0.23333,0.0667 -0.508332,0.14167 -0.791665,0.21667 -0.291664,0.05 -0.599998,0.0833 -0.883331,0.0833 -0.341667,0 -0.683334,-0.05 -1.025001,-0.125 -0.366669,-0.0917 -0.666665,-0.21666 -0.941666,-0.39167 -0.283333,-0.18332 -0.5,-0.39999 -0.683334,-0.66666 -0.175003,-0.275 -0.266671,-0.59167 -0.266671,-0.975 0,-0.375 0.09167,-0.7 0.266671,-0.96667 0.183334,-0.29166 0.400001,-0.50833 0.683334,-0.69166 0.275001,-0.17501 0.574997,-0.3 0.941666,-0.375 0.341667,-0.0917 0.683334,-0.125 1.025001,-0.125 0.35833,0 0.683334,0.0333 1.008331,0.125 0.324997,0.0917 0.591668,0.19999 0.841668,0.325 0.258331,0.12499 0.433334,0.25 0.574997,0.37499 0.150001,0.12501 0.216667,0.21667 0.216667,0.29168 l 0,0.15833 c 0,0.075 -0.01666,0.125 -0.01666,0.16666 l 0.199997,0.125 1.708336,-2.46666 -0.216667,-0.125 c -0.108338,0.125 -0.216667,0.19999 -0.283333,0.19999 -0.05833,0 -0.183334,-0.0583 -0.400002,-0.16666 -0.216667,-0.10833 -0.483329,-0.23333 -0.824997,-0.375 -0.358337,-0.14166 -0.775001,-0.25 -1.241668,-0.34167 -0.466667,-0.0917 -0.991669,-0.14166 -1.566666,-0.14166 -0.666672,0 -1.316666,0.05 -1.941666,0.19167 -0.633338,0.125 -1.191673,0.34166 -1.675003,0.66666 -0.508331,0.325 -0.900001,0.74167 -1.191665,1.25833 -0.308335,0.50834 -0.450005,1.13334 -0.450005,1.89167 0,0.725 0.14167,1.35 0.450005,1.875 0.291664,0.5 0.683334,0.93334 1.191665,1.25833 0.48333,0.32501 1.041665,0.55834 1.675003,0.70001 0.625,0.14999 1.274994,0.23333 1.941666,0.23333 0.391663,0 0.775002,-0.0333 1.150002,-0.10833 0.358329,-0.0667 0.699997,-0.125 1.024994,-0.19168 0.308334,-0.075 0.575004,-0.14999 0.808334,-0.21666 0.216667,-0.075 0.383339,-0.0917 0.491669,-0.0917 0.108329,0 0.216667,0.0917 0.26667,0.15833 l 0.216659,-0.0667 z"
           style="fill:#000000;fill-opacity:1;fill-rule:evenodd;stroke:none"
           id="path130"
           inkscape:connector-curvature="0" /><path
           d="m 94.441673,117.20001 0,0.21666 c 0.158333,0 0.5,0.0333 0.5,0.30834 0,0.0333 -0.05,0.10833 -0.125,0.25 -0.09167,0.14167 -0.200004,0.30833 -0.325004,0.5 -0.125,0.18333 -0.266663,0.4 -0.408333,0.63333 -0.166664,0.23334 -0.308334,0.45 -0.449997,0.66667 -0.150002,0.21667 -0.291664,0.39166 -0.400002,0.575 -0.108329,0.15833 -0.199997,0.29166 -0.233329,0.375 l -1.566674,-1.50833 0,-1.475 c 0,-0.275 0.25,-0.30834 0.508339,-0.32501 l 0,-0.21666 -3.366668,0 0,0.21666 c 0.216667,-0.0333 0.449997,0.05 0.449997,0.32501 l 0,6.84166 c 0,0.25 -0.23333,0.34166 -0.449997,0.31667 l 0,0.21667 3.366668,0 0,-0.21667 c -0.258339,-0.0333 -0.508339,-0.0667 -0.508339,-0.31667 l 0,-3.31667 c 0.183335,0.14167 0.375,0.34167 0.633339,0.55833 0.25,0.21667 0.5,0.43334 0.775002,0.66668 0.266662,0.23333 0.533333,0.46666 0.808327,0.69999 0.25,0.21667 0.483337,0.43334 0.700004,0.63333 0.216667,0.20001 0.375,0.35834 0.5,0.5 0.133331,0.12501 0.199997,0.21667 0.199997,0.25834 0,0.25 -0.266663,0.28334 -0.449997,0.31667 l 0,0.21667 3.508331,0 0,-0.21667 c -0.174995,-0.0333 -0.408332,-0.15833 -0.699997,-0.375 -0.283332,-0.23334 -0.591667,-0.5 -0.916671,-0.79167 -0.324997,-0.28333 -0.649994,-0.59167 -0.974999,-0.9 -0.316665,-0.30833 -0.591667,-0.54167 -0.808334,-0.71666 l 2.991669,-4.43334 c 0.108337,-0.19166 0.233337,-0.25 0.408332,-0.26667 l 0,-0.21666 -3.666664,0 z"
           style="fill:#000000;fill-opacity:1;fill-rule:evenodd;stroke:none"
           id="path132"
           inkscape:connector-curvature="0" /><path
           d="m 107.65834,118.78334 c 0.23333,0 0.4,0.14166 0.46667,0.45 l 0.21667,0 0,-2.35833 -0.17501,0 c -0.13333,0.325 -0.21666,0.325 -0.50833,0.325 l -8.025001,0 0,0.21666 c 0.25,0.0167 0.500001,0.05 0.500001,0.32501 l 0,6.84166 c 0,0.25 -0.250001,0.28334 -0.500001,0.31667 l 0,0.21667 8.166661,0 c 0.15001,0 0.32501,0.0583 0.32501,0.39999 l 0.21667,0 0,-2.41666 -0.21667,0 c 0,0.36667 -0.175,0.43333 -0.32501,0.43333 l -5.25,0 0,-1.45834 3.38334,0 c 0.14166,0 0.325,0.075 0.325,0.41668 l 0.21667,0 0,-2.34167 -0.21667,0 c 0,0.325 -0.18334,0.41666 -0.325,0.41666 l -3.38334,0 0,-1.78333 5.10834,0 z"
           style="fill:#000000;fill-opacity:1;fill-rule:evenodd;stroke:none"
           id="path134"
           inkscape:connector-curvature="0" /><path
           d="m 113.40834,121.66667 2.55834,0 c 0.75,0 1.24166,0.32501 1.24166,0.96667 0,0.54166 -0.29167,0.975 -1.36666,0.975 l -2.43334,0 0,-1.94167 z m -2.26667,2.91667 c 0,0.25 -0.21667,0.28334 -0.4,0.31667 l 0,0.21667 5.78334,0 c 1.79999,0 2.95,-0.84167 2.95,-2.5 0,-1.29168 -0.85,-2 -2,-2.42501 l 1.59999,-2.41666 c 0.10834,-0.20001 0.36667,-0.35834 0.63334,-0.35834 l 0,-0.21666 -3.63334,0 0,0.21666 c 0.15834,0 0.43334,0.0333 0.43334,0.23334 0,0.05 -0.075,0.2 -0.2,0.45 -0.125,0.23333 -0.275,0.48333 -0.43333,0.775 -0.15833,0.26666 -0.32501,0.54166 -0.46667,0.79166 -0.14167,0.25 -0.23334,0.41667 -0.275,0.48334 l -1.725,0 0,-2.40833 c 0,-0.275 0.2,-0.30834 0.46667,-0.32501 l 0,-0.21666 -3.09167,0 0,0.21666 c 0.14166,0.0167 0.35833,0.05 0.35833,0.32501 l 0,6.84166 z"
           style="fill:#000000;fill-opacity:1;fill-rule:evenodd;stroke:none"
           id="path136"
           inkscape:connector-curvature="0" /><path
           d="m 124.50834,118.925 1.3,0 c 1.875,0 2.62499,0.57501 2.62499,2.23334 0,1.65833 -0.74999,2.23333 -2.62499,2.23333 l -1.3,0 0,-4.46667 z m -2.40833,5.65834 c 0,0.25 -0.21667,0.28334 -0.46667,0.31667 l 0,0.21667 5.4,0 c 0.66667,0 1.24167,-0.10834 1.70833,-0.31668 0.46667,-0.21666 0.84167,-0.50833 1.15001,-0.86666 0.30833,-0.35834 0.52499,-0.79167 0.66665,-1.25834 0.14168,-0.49166 0.21668,-0.99166 0.21668,-1.51666 0,-0.54166 -0.075,-1.04166 -0.21668,-1.50833 -0.14166,-0.49167 -0.35832,-0.9 -0.66665,-1.25834 -0.30834,-0.36666 -0.68334,-0.64999 -1.15001,-0.86666 -0.46666,-0.21667 -1.04166,-0.325 -1.70833,-0.325 l -5.4,0 0,0.21666 c 0.25,0.0167 0.46667,0.05 0.46667,0.32501 l 0,6.84166 z"
           style="fill:#000000;fill-opacity:1;fill-rule:evenodd;stroke:none"
           id="path138"
           inkscape:connector-curvature="0" /><path
           d="m 139.64168,117.20001 0,0.21666 c 0.0667,0 0.23332,-0.0167 0.23332,0.15833 0,0.0417 -0.0417,0.10834 -0.075,0.21667 -0.0333,0.10834 -0.0917,0.21667 -0.14166,0.34167 -0.0583,0.10834 -0.10834,0.23334 -0.16667,0.36667 -0.0667,0.1 -0.10832,0.20833 -0.14166,0.29999 l -4.17501,0 c -0.0333,-0.0917 -0.075,-0.19999 -0.125,-0.29999 -0.0583,-0.13333 -0.10832,-0.25833 -0.16665,-0.36667 -0.0667,-0.125 -0.125,-0.23333 -0.15834,-0.34167 -0.0583,-0.10833 -0.075,-0.17499 -0.075,-0.21667 0,-0.17499 0.16667,-0.15833 0.23334,-0.15833 l 0,-0.21666 -2.70002,0 0,0.21666 c 0.15001,0 0.30834,0.05 0.36667,0.18334 0.35834,0.82499 0.71668,1.65 1.09168,2.48333 0.36667,0.825 0.70833,1.56667 0.99167,2.225 0.29165,0.66667 0.54165,1.225 0.74165,1.65834 0.175,0.43333 0.28334,0.68333 0.28334,0.75833 0,0.10833 -0.0917,0.15833 -0.23334,0.175 l 0,0.21667 3.76668,0 0,-0.21667 c -0.16667,-0.0167 -0.23334,-0.0667 -0.23334,-0.175 0,-0.0333 0.05,-0.2 0.17501,-0.48333 0.125,-0.29167 0.29165,-0.63334 0.50833,-1.06668 0.19166,-0.43332 0.40832,-0.89999 0.66665,-1.39999 0.25,-0.525 0.48334,-1.05 0.73334,-1.55 0.25,-0.525 0.48334,-1.00833 0.7,-1.475 0.21667,-0.46667 0.38333,-0.85 0.52501,-1.15 0.0333,-0.13333 0.21666,-0.18334 0.35832,-0.18334 l 0,-0.21666 -2.98332,0 z m -0.90001,2.9 -1.51666,3.15 -1.47501,-3.15 2.99167,0 z"
           style="fill:#000000;fill-opacity:1;fill-rule:evenodd;stroke:none"
           id="path140"
           inkscape:connector-curvature="0" /><path
           d="m 145.15001,124.58334 c 0,0.25 -0.23334,0.28334 -0.49167,0.31667 l 0,0.21667 3.36667,0 0,-0.21667 c -0.26666,-0.0333 -0.46668,-0.0667 -0.46668,-0.31667 l 0,-5.55 4.93334,0 c 0.14168,0 0.32501,0.0583 0.32501,0.45 l 0.21666,0 0,-2.68334 -0.21666,0 c 0,0.40001 -0.18333,0.40001 -0.32501,0.40001 l -7.83333,0 0,0.21666 c 0.25833,0.0167 0.49167,0.05 0.49167,0.32501 l 0,6.84166 z"
           style="fill:#000000;fill-opacity:1;fill-rule:evenodd;stroke:none"
           id="path142"
           inkscape:connector-curvature="0" /><path
           d="m 58.833336,99.200005 0,0.216667 c 0.216667,0 0.341667,-0.01667 0.341667,0.23333 0,0.03334 -0.05,0.14167 -0.158333,0.325004 -0.108333,0.174994 -0.25,0.391664 -0.416668,0.666664 -0.183334,0.25 -0.358333,0.54167 -0.558334,0.84167 -0.216663,0.29166 -0.391666,0.575 -0.574997,0.86667 -0.183334,0.26666 -0.341667,0.5 -0.483334,0.71666 -0.150001,0.2 -0.258335,0.34167 -0.291668,0.41667 L 54.925003,101.9 l 0,-2.158331 c 0,-0.183327 0.04167,-0.291664 0.508331,-0.324997 l 0,-0.216667 -3.708332,0 0,0.216667 c 0.450001,0.03333 0.5,0.14167 0.5,0.324997 l 0,8.383341 c 0,0.16666 -0.05,0.275 -0.5,0.325 l 0,0.21666 3.708332,0 0,-0.21666 c -0.466663,-0.05 -0.508331,-0.15834 -0.508331,-0.325 l 0,-3.23334 0.133331,0 c 0.358334,0.34167 0.733334,0.70001 1.150002,1.07501 0.408333,0.35832 0.791668,0.69999 1.150001,1.02499 0.341668,0.325 0.633332,0.60001 0.866665,0.80833 0.233334,0.21667 0.358334,0.36667 0.358334,0.41668 0,0.21666 -0.141667,0.19999 -0.325001,0.23333 l 0,0.21666 4.575001,0 0,-0.21666 c -0.125,-0.0167 -0.233334,-0.0333 -0.308334,-0.05 -0.075,-0.0417 -0.141667,-0.075 -0.216664,-0.10834 -0.075,-0.0583 -0.141666,-0.10833 -0.216667,-0.18333 -0.075,-0.0667 -0.158333,-0.14166 -0.266666,-0.23333 l -3.116669,-2.68334 3.674999,-5.491665 c 0.175003,-0.283333 0.325001,-0.283333 0.575001,-0.283333 l 0,-0.216667 -4.125,0 z"
           style="fill:#5c5c5c;fill-opacity:1;fill-rule:evenodd;stroke:none"
           id="path144"
           inkscape:connector-curvature="0" /><path
           d="m 68.825005,105.31667 c -0.341668,0 -0.666665,-0.05 -0.958336,-0.15833 -0.299996,-0.10834 -0.574997,-0.25 -0.791664,-0.43333 -0.233338,-0.17501 -0.408333,-0.41667 -0.541665,-0.66667 -0.125,-0.26667 -0.175003,-0.575 -0.175003,-0.9 0,-0.34167 0.05,-0.65 0.175003,-0.9 0.133332,-0.26667 0.308327,-0.5 0.541665,-0.68334 0.216667,-0.175 0.491668,-0.32499 0.791664,-0.43333 0.291671,-0.10833 0.616668,-0.14166 0.958336,-0.14166 0.341667,0 0.666664,0.0333 0.949997,0.14166 0.291671,0.10834 0.558334,0.25833 0.791671,0.43333 0.216667,0.18334 0.399994,0.41667 0.524994,0.68334 0.125,0.25 0.200005,0.55833 0.200005,0.9 0,0.325 -0.07501,0.63333 -0.200005,0.9 -0.125,0.25 -0.308327,0.49166 -0.524994,0.66667 -0.233337,0.18333 -0.5,0.32499 -0.791671,0.43333 -0.283333,0.10833 -0.60833,0.15833 -0.949997,0.15833 z m 0,1.90834 c 0.558334,0 1.116668,-0.0833 1.691665,-0.23334 0.574997,-0.15833 1.074997,-0.40833 1.550003,-0.73333 0.466667,-0.325 0.841667,-0.75833 1.133332,-1.25833 0.283332,-0.525 0.433334,-1.14167 0.433334,-1.84167 0,-0.71667 -0.150002,-1.35 -0.433334,-1.85 -0.291665,-0.50834 -0.666665,-0.91667 -1.133332,-1.24167 -0.475006,-0.325001 -0.975006,-0.558331 -1.550003,-0.708333 -0.574997,-0.141662 -1.133331,-0.208335 -1.691665,-0.208335 -0.575005,0 -1.133332,0.06667 -1.708336,0.208335 -0.583329,0.150002 -1.083329,0.383332 -1.549996,0.708333 -0.466667,0.325 -0.833336,0.73333 -1.116668,1.24167 -0.291665,0.5 -0.433335,1.13333 -0.433335,1.85 0,0.7 0.14167,1.31667 0.433335,1.84167 0.283332,0.5 0.650001,0.93333 1.116668,1.25833 0.466667,0.325 0.966667,0.575 1.549996,0.73333 0.575004,0.15 1.133331,0.23334 1.708336,0.23334 z"
           style="fill:#5c5c5c;fill-opacity:1;fill-rule:evenodd;stroke:none"
           id="path146"
           inkscape:connector-curvature="0" /><path
           d="m 84.691673,99.741669 c 0,-0.274994 0.216667,-0.308327 0.5,-0.324997 l 0,-0.216667 -3.325004,0 0,0.216667 c 0.175003,0 0.51667,0.01667 0.51667,0.23333 0,0.108337 -0.14167,0.308334 -0.39167,0.591668 -0.275002,0.29167 -0.616661,0.66667 -1.025002,1.10001 -0.416664,0.43332 -0.883331,0.89999 -1.391662,1.44166 -0.516671,0.54166 -1.025002,1.1 -1.525002,1.70833 l -0.04166,-0.0333 0,-4.716671 c 0,-0.274994 0.199997,-0.308327 0.466667,-0.324997 l 0,-0.216667 -3.075004,0 0,0.216667 c 0.233337,0.01667 0.450004,0.05 0.450004,0.324997 l 0,6.841671 c 0,0.25 -0.233337,0.28333 -0.483337,0.31667 l 0,0.21666 4.283333,0 0,-0.21666 c -0.183335,-0.0333 -0.383332,-0.0667 -0.383332,-0.31667 0,-0.0417 0.09167,-0.16667 0.291664,-0.38333 0.200005,-0.21667 0.450005,-0.5 0.775002,-0.825 0.308334,-0.34167 0.650001,-0.725 1.041672,-1.11667 0.383331,-0.41666 0.758331,-0.825 1.149994,-1.225 l 0,3.55 c 0,0.25 -0.208329,0.28333 -0.5,0.31667 l 0,0.21666 3.166671,0 0,-0.21666 c -0.283333,-0.0333 -0.5,-0.0667 -0.5,-0.31667 l 0,-6.841671 z"
           style="fill:#5c5c5c;fill-opacity:1;fill-rule:evenodd;stroke:none"
           id="path148"
           inkscape:connector-curvature="0" /><path
           d="m 87.691673,101.95001 0.23333,-0.1 c 0,-0.0583 -0.01666,-0.10834 -0.01666,-0.20001 0,-0.125 0.10833,-0.23333 0.341668,-0.34166 0.216667,-0.10833 0.5,-0.21666 0.858329,-0.30833 0.358338,-0.0917 0.741669,-0.15833 1.158333,-0.21667 0.408333,-0.05 0.808335,-0.075 1.166664,-0.075 0.108338,0 0.25,0 0.433335,0.025 0.175003,0 0.375,0.0333 0.558334,0.0833 0.175003,0.0583 0.325005,0.13334 0.450005,0.23333 0.125,0.10834 0.191665,0.25834 0.191665,0.43334 0,0.23334 -0.14167,0.4 -0.425003,0.50833 -0.291664,0.10834 -0.666664,0.175 -1.099998,0.23334 -0.433335,0.05 -0.916664,0.10833 -1.425003,0.175 -0.5,0.0583 -0.991661,0.16666 -1.416664,0.30833 -0.433335,0.14167 -0.791665,0.35833 -1.083336,0.65 -0.291664,0.29167 -0.433335,0.68333 -0.433335,1.19166 0,0.26667 0.07501,0.55001 0.216668,0.875 0.14167,0.32501 0.358337,0.61667 0.683334,0.88334 0.308334,0.25 0.724998,0.46667 1.224998,0.65 0.508339,0.18333 1.133339,0.26667 1.875,0.26667 0.433335,0 0.825005,-0.0333 1.225006,-0.0667 0.391663,-0.0583 0.73333,-0.10834 1.058335,-0.16667 0.324997,-0.0667 0.591667,-0.125 0.808327,-0.15833 0.216667,-0.0583 0.383338,-0.075 0.491668,-0.075 0.175003,0 0.283333,0.14167 0.39167,0.21667 l 0.199997,-0.075 -1.083335,-2.26667 -0.23333,0.10833 c 0,0.0417 0.01667,0.125 0.01667,0.2 0,0.0333 -0.06667,0.10833 -0.216667,0.18334 -0.14167,0.0667 -0.341667,0.14166 -0.575005,0.21667 -0.23333,0.0667 -0.5,0.125 -0.791664,0.17499 -0.283333,0.0583 -0.591667,0.0917 -0.900001,0.0917 -0.10833,0 -0.283333,-0.0167 -0.5,-0.0167 -0.23333,0 -0.466668,-0.0417 -0.683335,-0.0917 -0.23333,-0.05 -0.433334,-0.125 -0.616668,-0.23334 -0.174996,-0.10833 -0.25,-0.25 -0.25,-0.45 0,-0.21666 0.14167,-0.375 0.433334,-0.46666 0.283333,-0.0917 0.650001,-0.16667 1.075004,-0.21667 0.433335,-0.0583 0.924996,-0.10833 1.424996,-0.18333 0.508339,-0.0667 0.991669,-0.175 1.425003,-0.325 0.433334,-0.15833 0.808334,-0.39167 1.091667,-0.68334 0.291664,-0.28333 0.433334,-0.7 0.433334,-1.22499 0,-0.35834 -0.09167,-0.68334 -0.233337,-1.00834 -0.158333,-0.31667 -0.391663,-0.59167 -0.716667,-0.825001 -0.324997,-0.25 -0.741661,-0.433334 -1.241661,-0.558334 -0.508339,-0.125 -1.083336,-0.175003 -1.76667,-0.175003 -0.433335,0 -0.883332,0.03334 -1.316666,0.06667 -0.450005,0.05833 -0.858337,0.125 -1.216667,0.199997 -0.383332,0.075 -0.691666,0.14167 -0.941666,0.216667 -0.25,0.06667 -0.375,0.10833 -0.408333,0.10833 -0.183334,0 -0.308334,-0.141663 -0.416671,-0.25 l -0.199997,0.05 0.741668,2.408334 z"
           style="fill:#5c5c5c;fill-opacity:1;fill-rule:evenodd;stroke:none"
           id="path150"
           inkscape:connector-curvature="0" /><path
           d="m 98.050003,106.58334 c 0,0.25 -0.23333,0.28333 -0.525001,0.31667 l 0,0.21666 3.241668,0 0,-0.21666 c -0.125,-0.0333 -0.30833,-0.0667 -0.30833,-0.31667 l 0,-4.375 c 0,-0.91667 0.725,-1.28334 1.8,-1.28334 1.08334,0 1.8,0.36667 1.8,1.28334 l 0,4.375 c 0,0.25 -0.19167,0.28333 -0.3,0.31667 l 0,0.21666 3.23333,0 0,-0.21666 c -0.28333,-0.0333 -0.51666,-0.0667 -0.51666,-0.31667 l 0,-3.96667 c 0,-0.48333 -0.075,-0.93333 -0.21667,-1.36666 -0.14167,-0.43334 -0.38333,-0.79167 -0.7,-1.11667 -0.325,-0.324998 -0.75834,-0.558335 -1.3,-0.733338 -0.54166,-0.183327 -1.20834,-0.25 -2,-0.25 -0.79166,0 -1.45834,0.06667 -1.99167,0.25 -0.541664,0.175003 -0.974998,0.40834 -1.299995,0.733338 -0.325005,0.325 -0.558335,0.68333 -0.700005,1.11667 -0.150001,0.43333 -0.216667,0.88333 -0.216667,1.36666 l 0,3.96667 z"
           style="fill:#5c5c5c;fill-opacity:1;fill-rule:evenodd;stroke:none"
           id="path152"
           inkscape:connector-curvature="0" /><path
           d="m 109.81667,106.58334 c 0,0.25 -0.23333,0.28333 -0.49167,0.31667 l 0,0.21666 3.36667,0 0,-0.21666 c -0.26667,-0.0333 -0.46666,-0.0667 -0.46666,-0.31667 l 0,-5.55 4.93333,0 c 0.14166,0 0.325,0.0583 0.325,0.45 l 0.21667,0 0,-2.683337 -0.21667,0 c 0,0.400002 -0.18334,0.400002 -0.325,0.400002 l -7.83334,0 0,0.216667 c 0.25834,0.01667 0.49167,0.05 0.49167,0.324997 l 0,6.841671 z"
           style="fill:#5c5c5c;fill-opacity:1;fill-rule:evenodd;stroke:none"
           id="path154"
           inkscape:connector-curvature="0" /><path
           d="m 127.05,107.11667 c 0.14167,0 0.32501,0.0583 0.32501,0.4 l 0.21667,0 0,-2.625 -0.21667,0 c 0,0.31667 -0.18334,0.39167 -0.32501,0.39167 l -2.57499,0 0,-5.541671 c 0,-0.274994 0.21666,-0.308327 0.41666,-0.324997 l 0,-0.216667 -3.24166,0 0,0.216667 c 0.18333,0.01667 0.41666,0.05 0.41666,0.324997 l 0,5.541671 -2.57499,0 c -0.14167,0 -0.32501,-0.075 -0.32501,-0.39167 l -0.21666,0 0,2.625 0.21666,0 c 0,-0.34167 0.18334,-0.4 0.32501,-0.4 l 7.55832,0 z"
           style="fill:#5c5c5c;fill-opacity:1;fill-rule:evenodd;stroke:none"
           id="path156"
           inkscape:connector-curvature="0" /></g></g><g
       id="g158"><g
         id="g160"
         clip-path="url(#clipPath162)"><path
           d="M 0,0 1,1"
           style="fill:none;stroke:#ffffff;stroke-width:1;stroke-linecap:butt;stroke-linejoin:miter;stroke-miterlimit:10;stroke-opacity:1;stroke-dasharray:none"
           id="path166"
           inkscape:connector-curvature="0" /></g></g></g></svg>